<!-- Generated by IcoMoon.io -->
<svg version="1.1" xmlns="http://www.w3.org/2000/svg" width="32" height="32" viewBox="0 0 32 32">
<title>quotes-left</title>
<path fill="#222fa5" d="M8.662 14.364c3.163 0 5.727 2.564 5.727 5.727s-2.564 5.727-5.727 5.727-5.727-2.564-5.727-5.727l-0.026-0.818c0-6.326 5.128-11.455 11.455-11.455v3.273c-2.185 0-4.24 0.851-5.785 2.396-0.297 0.297-0.569 0.614-0.814 0.947 0.292-0.046 0.592-0.070 0.898-0.070zM23.389 14.364c3.163 0 5.727 2.564 5.727 5.727s-2.564 5.727-5.727 5.727-5.727-2.564-5.727-5.727l-0.026-0.818c0-6.326 5.128-11.455 11.455-11.455v3.273c-2.185 0-4.24 0.851-5.785 2.396-0.297 0.297-0.569 0.614-0.814 0.947 0.293-0.046 0.592-0.070 0.898-0.070z"></path>
</svg>
